<svg width="698" height="429" viewBox="0 0 698 429" fill="none" xmlns="http://www.w3.org/2000/svg">
<path d="M150.215 364.303L0.000249147 428.868V300.188L150.215 364.303Z" fill="#384553"/>
<path d="M698.391 0L0.00170898 300.188L74.8456 396.695L773.24 96.5144L698.391 0Z" fill="#384553"/>
<path d="M130.789 283.59L140.042 277.091L151.078 274.627L162.217 276.574L171.762 282.635L178.262 291.888L180.726 302.924L178.778 314.063L172.717 323.609L163.464 330.108L152.428 332.572L141.289 330.625L131.744 324.563L125.244 315.31L122.78 304.274L124.727 293.136L130.789 283.59Z" fill="url(#paint0_linear_50_224)" stroke="#FEFCAC" stroke-width="2"/>
<path d="M135.661 292.643L143.517 286.319L153.482 284.77L162.887 288.411L169.211 296.267L170.76 306.232L167.119 315.636L159.263 321.96L149.298 323.509L139.893 319.868L133.569 312.012L132.02 302.047L135.661 292.643Z" fill="#FEFCAC" stroke="#FEFCAC"/>
<path d="M146.44 301.355C147.386 300.937 148.171 300.707 148.794 300.665C149.417 300.623 149.946 300.791 150.381 301.17C150.827 301.545 151.239 302.162 151.618 303.02C151.998 303.879 152.181 304.597 152.168 305.174C152.164 305.747 151.957 306.241 151.545 306.656C151.13 307.061 150.497 307.451 149.649 307.826C149.2 308.024 148.752 308.199 148.306 308.349C147.859 308.5 147.437 308.628 147.041 308.733C146.644 308.839 146.301 308.92 146.012 308.978C145.718 309.026 145.51 309.042 145.386 309.027L144.939 307.895C145.514 307.641 146.11 307.378 146.724 307.106C147.349 306.831 147.963 306.559 148.568 306.292C148.954 306.11 149.235 305.927 149.411 305.745C149.597 305.558 149.682 305.328 149.666 305.055C149.66 304.777 149.565 304.429 149.379 304.009C149.19 303.58 148.994 303.27 148.793 303.079C148.602 302.884 148.375 302.791 148.112 302.803C147.854 302.8 147.53 302.885 147.139 303.057C146.242 303.454 145.473 303.799 144.834 304.094C144.194 304.388 143.768 304.599 143.557 304.728L142.626 303.215C143.014 302.985 143.385 302.78 143.737 302.601C144.089 302.422 144.475 302.24 144.895 302.055C145.32 301.855 145.835 301.622 146.44 301.355ZM144.865 302.225L149.327 312.324L147.087 313.313L142.626 303.215L144.865 302.225ZM155.547 297.296C156.025 297.085 156.437 296.921 156.781 296.804C157.131 296.672 157.459 296.569 157.763 296.492C158.068 296.416 158.391 296.355 158.732 296.309L159.28 298.026C158.95 298.149 158.646 298.266 158.368 298.377C158.1 298.483 157.811 298.605 157.498 298.743C157.192 298.867 156.823 299.024 156.394 299.214C155.897 299.433 155.549 299.703 155.353 300.024C155.166 300.339 155.121 300.767 155.22 301.307C155.314 301.837 155.549 302.526 155.924 303.375C156.299 304.224 156.652 304.866 156.985 305.302C157.313 305.729 157.657 305.979 158.016 306.053C158.386 306.124 158.819 306.049 159.317 305.829C159.99 305.531 160.551 305.272 161.001 305.05C161.451 304.827 161.89 304.593 162.317 304.346L163.232 305.901C162.828 306.254 162.395 306.568 161.933 306.842C161.476 307.126 160.886 307.427 160.164 307.746C159.12 308.207 158.207 308.412 157.427 308.361C156.651 308.295 155.954 307.944 155.335 307.308C154.725 306.668 154.136 305.704 153.567 304.416C152.998 303.128 152.682 302.043 152.619 301.161C152.566 300.275 152.778 299.528 153.256 298.921C153.74 298.299 154.503 297.758 155.547 297.296Z" fill="#384553"/>
<path d="M213.113 247.221L222.366 240.721L233.402 238.257L244.541 240.204L254.086 246.266L260.586 255.519L263.05 266.555L261.103 277.693L255.041 287.239L245.788 293.739L234.752 296.203L223.614 294.255L214.068 288.194L207.568 278.941L205.105 267.905L207.052 256.766L213.113 247.221Z" fill="url(#paint1_linear_50_224)" stroke="#FEFCAC" stroke-width="2"/>
<path d="M217.986 256.273L225.841 249.949L235.806 248.401L245.211 252.042L251.535 259.897L253.084 269.862L249.443 279.267L241.587 285.591L231.622 287.14L222.217 283.499L215.893 275.643L214.345 265.678L217.986 256.273Z" fill="#FEFCAC" stroke="#FEFCAC"/>
<path d="M228.764 264.986C229.71 264.567 230.495 264.337 231.118 264.295C231.741 264.254 232.27 264.422 232.706 264.801C233.151 265.176 233.563 265.792 233.943 266.651C234.322 267.509 234.505 268.227 234.492 268.805C234.488 269.378 234.281 269.871 233.87 270.286C233.454 270.692 232.822 271.082 231.973 271.457C231.524 271.655 231.076 271.83 230.63 271.98C230.183 272.131 229.762 272.259 229.365 272.364C228.968 272.469 228.625 272.551 228.336 272.609C228.042 272.657 227.834 272.673 227.711 272.658L227.263 271.526C227.839 271.272 228.434 271.009 229.049 270.737C229.673 270.461 230.288 270.19 230.893 269.922C231.279 269.74 231.559 269.558 231.735 269.375C231.921 269.188 232.006 268.958 231.99 268.685C231.984 268.408 231.889 268.06 231.703 267.64C231.514 267.211 231.318 266.901 231.117 266.71C230.926 266.514 230.699 266.422 230.436 266.433C230.178 266.431 229.854 266.516 229.464 266.688C228.566 267.085 227.797 267.43 227.158 267.724C226.518 268.018 226.093 268.23 225.881 268.358L224.95 266.845C225.339 266.615 225.709 266.411 226.061 266.232C226.414 266.053 226.8 265.871 227.219 265.686C227.644 265.486 228.159 265.253 228.764 264.986ZM227.19 265.856L231.651 275.954L229.412 276.944L224.95 266.845L227.19 265.856ZM237.871 260.927C238.349 260.716 238.761 260.552 239.106 260.434C239.456 260.303 239.783 260.199 240.087 260.123C240.392 260.047 240.715 259.986 241.056 259.94L241.605 261.657C241.274 261.779 240.97 261.896 240.692 262.007C240.425 262.114 240.135 262.236 239.823 262.374C239.516 262.498 239.148 262.655 238.718 262.844C238.221 263.064 237.874 263.334 237.677 263.654C237.49 263.97 237.446 264.398 237.544 264.937C237.638 265.467 237.873 266.157 238.248 267.005C238.623 267.854 238.977 268.497 239.309 268.933C239.637 269.359 239.981 269.61 240.341 269.684C240.71 269.754 241.143 269.679 241.641 269.46C242.314 269.162 242.876 268.902 243.326 268.68C243.776 268.458 244.214 268.224 244.641 267.976L245.556 269.532C245.152 269.885 244.719 270.199 244.257 270.473C243.8 270.756 243.21 271.058 242.488 271.377C241.444 271.838 240.531 272.043 239.751 271.991C238.975 271.926 238.278 271.575 237.659 270.939C237.05 270.298 236.46 269.334 235.891 268.046C235.322 266.758 235.006 265.674 234.943 264.792C234.89 263.906 235.103 263.159 235.58 262.551C236.064 261.93 236.827 261.388 237.871 260.927Z" fill="#384553"/>
<path d="M295.437 210.851L304.69 204.352L315.726 201.888L326.865 203.835L336.411 209.897L342.91 219.15L345.374 230.185L343.427 241.324L337.366 250.87L328.113 257.369L317.077 259.833L305.938 257.886L296.392 251.825L289.893 242.572L287.429 231.536L289.376 220.397L295.437 210.851Z" fill="url(#paint2_linear_50_224)" stroke="#FEFCAC" stroke-width="2"/>
<path d="M300.31 219.904L308.166 213.58L318.131 212.031L327.535 215.672L333.859 223.528L335.408 233.493L331.767 242.898L323.911 249.222L313.946 250.771L304.542 247.129L298.218 239.274L296.669 229.309L300.31 219.904Z" fill="#FEFCAC" stroke="#FEFCAC"/>
<path d="M311.088 228.616C312.035 228.198 312.819 227.968 313.442 227.926C314.065 227.884 314.594 228.053 315.03 228.432C315.475 228.806 315.888 229.423 316.267 230.282C316.646 231.14 316.829 231.858 316.816 232.435C316.813 233.008 316.605 233.502 316.194 233.917C315.778 234.322 315.146 234.712 314.297 235.087C313.848 235.286 313.4 235.46 312.954 235.611C312.507 235.761 312.086 235.889 311.689 235.995C311.293 236.1 310.95 236.181 310.66 236.239C310.367 236.287 310.158 236.304 310.035 236.288L309.587 235.157C310.163 234.902 310.758 234.639 311.373 234.368C311.997 234.092 312.612 233.82 313.217 233.553C313.603 233.371 313.884 233.189 314.06 233.006C314.245 232.819 314.33 232.589 314.315 232.316C314.309 232.039 314.213 231.69 314.028 231.271C313.838 230.841 313.643 230.531 313.442 230.34C313.25 230.145 313.023 230.053 312.76 230.064C312.502 230.061 312.178 230.146 311.788 230.319C310.89 230.715 310.122 231.061 309.482 231.355C308.842 231.649 308.417 231.86 308.205 231.989L307.275 230.476C307.663 230.246 308.033 230.042 308.385 229.863C308.738 229.684 309.124 229.502 309.543 229.316C309.968 229.117 310.483 228.883 311.088 228.616ZM309.514 229.487L313.975 239.585L311.736 240.574L307.275 230.476L309.514 229.487ZM320.196 224.558C320.674 224.347 321.085 224.182 321.43 224.065C321.78 223.934 322.107 223.83 322.412 223.754C322.716 223.677 323.039 223.616 323.38 223.571L323.929 225.287C323.598 225.41 323.294 225.527 323.017 225.638C322.749 225.744 322.459 225.867 322.147 226.005C321.84 226.129 321.472 226.285 321.043 226.475C320.545 226.695 320.198 226.965 320.001 227.285C319.814 227.601 319.77 228.028 319.868 228.568C319.962 229.098 320.197 229.787 320.572 230.636C320.947 231.485 321.301 232.127 321.633 232.564C321.962 232.99 322.306 233.24 322.665 233.315C323.034 233.385 323.467 233.31 323.965 233.09C324.638 232.793 325.2 232.533 325.65 232.311C326.1 232.089 326.538 231.854 326.966 231.607L327.88 233.162C327.476 233.516 327.044 233.829 326.582 234.103C326.124 234.387 325.534 234.688 324.812 235.007C323.768 235.469 322.856 235.673 322.075 235.622C321.3 235.556 320.602 235.205 319.983 234.569C319.374 233.929 318.785 232.965 318.216 231.677C317.647 230.389 317.331 229.304 317.268 228.423C317.214 227.537 317.427 226.79 317.905 226.182C318.388 225.56 319.152 225.019 320.196 224.558Z" fill="#384553"/>
<path d="M377.762 174.482L387.015 167.983L398.05 165.519L409.189 167.466L418.735 173.527L425.234 182.78L427.698 193.816L425.751 204.955L419.69 214.501L410.437 221L399.401 223.464L388.262 221.517L378.716 215.455L372.217 206.202L369.753 195.166L371.7 184.028L377.762 174.482Z" fill="url(#paint3_linear_50_224)" stroke="#FEFCAC" stroke-width="2"/>
<path d="M382.634 183.535L390.49 177.211L400.455 175.662L409.859 179.303L416.183 187.159L417.732 197.124L414.091 206.528L406.236 212.852L396.27 214.401L386.866 210.76L380.542 202.904L378.993 192.939L382.634 183.535Z" fill="#FEFCAC" stroke="#FEFCAC"/>
<path d="M393.412 192.247C394.359 191.829 395.144 191.599 395.766 191.557C396.389 191.515 396.918 191.683 397.354 192.062C397.799 192.437 398.212 193.054 398.591 193.912C398.97 194.771 399.154 195.489 399.14 196.066C399.137 196.639 398.929 197.133 398.518 197.548C398.102 197.953 397.47 198.343 396.621 198.718C396.172 198.916 395.725 199.091 395.278 199.242C394.832 199.392 394.41 199.52 394.013 199.625C393.617 199.731 393.274 199.812 392.985 199.87C392.691 199.918 392.482 199.934 392.359 199.919L391.911 198.787C392.487 198.533 393.082 198.27 393.697 197.998C394.321 197.723 394.936 197.451 395.541 197.184C395.927 197.002 396.208 196.819 396.384 196.637C396.569 196.45 396.654 196.22 396.639 195.947C396.633 195.669 396.537 195.321 396.352 194.901C396.162 194.472 395.967 194.162 395.766 193.971C395.575 193.776 395.347 193.684 395.084 193.695C394.826 193.692 394.502 193.777 394.112 193.949C393.214 194.346 392.446 194.691 391.806 194.986C391.167 195.28 390.741 195.491 390.53 195.62L389.599 194.107C389.987 193.877 390.357 193.672 390.71 193.493C391.062 193.314 391.448 193.132 391.868 192.947C392.293 192.747 392.808 192.514 393.412 192.247ZM391.838 193.117L396.299 203.216L394.06 204.205L389.599 194.107L391.838 193.117ZM402.52 188.188C402.998 187.977 403.409 187.813 403.754 187.696C404.104 187.564 404.431 187.461 404.736 187.384C405.04 187.308 405.363 187.247 405.705 187.201L406.253 188.918C405.922 189.041 405.618 189.158 405.341 189.269C405.073 189.375 404.783 189.497 404.471 189.635C404.164 189.759 403.796 189.916 403.367 190.106C402.869 190.326 402.522 190.596 402.325 190.916C402.138 191.231 402.094 191.659 402.192 192.199C402.287 192.729 402.521 193.418 402.896 194.267C403.271 195.116 403.625 195.758 403.958 196.194C404.286 196.621 404.63 196.871 404.989 196.945C405.358 197.016 405.792 196.941 406.289 196.721C406.963 196.423 407.524 196.164 407.974 195.942C408.424 195.72 408.863 195.485 409.29 195.238L410.204 196.793C409.801 197.146 409.368 197.46 408.906 197.734C408.448 198.018 407.858 198.319 407.136 198.638C406.092 199.099 405.18 199.304 404.399 199.253C403.624 199.187 402.927 198.836 402.307 198.2C401.698 197.56 401.109 196.596 400.54 195.308C399.971 194.02 399.655 192.935 399.592 192.053C399.539 191.167 399.751 190.42 400.229 189.813C400.712 189.191 401.476 188.65 402.52 188.188Z" fill="#384553"/>
<path d="M460.086 138.113L469.339 131.613L480.375 129.149L491.513 131.096L501.059 137.158L507.559 146.411L510.022 157.447L508.075 168.586L502.014 178.131L492.761 184.631L481.725 187.095L470.586 185.148L461.041 179.086L454.541 169.833L452.077 158.797L454.024 147.658L460.086 138.113Z" fill="url(#paint4_linear_50_224)" stroke="#FEFCAC" stroke-width="2"/>
<path d="M464.958 147.165L472.814 140.841L482.779 139.293L492.184 142.934L498.508 150.789L500.057 160.754L496.415 170.159L488.56 176.483L478.595 178.032L469.19 174.391L462.866 166.535L461.317 156.57L464.958 147.165Z" fill="#FEFCAC" stroke="#FEFCAC"/>
<path d="M475.737 155.878C476.683 155.459 477.468 155.229 478.091 155.187C478.713 155.146 479.243 155.314 479.678 155.693C480.124 156.068 480.536 156.684 480.915 157.543C481.295 158.401 481.478 159.119 481.465 159.697C481.461 160.27 481.254 160.763 480.842 161.178C480.427 161.584 479.794 161.974 478.945 162.349C478.497 162.547 478.049 162.722 477.602 162.872C477.156 163.023 476.734 163.151 476.338 163.256C475.941 163.361 475.598 163.443 475.309 163.501C475.015 163.549 474.807 163.565 474.683 163.55L474.236 162.418C474.811 162.164 475.407 161.901 476.021 161.629C476.646 161.353 477.26 161.082 477.865 160.814C478.251 160.632 478.532 160.45 478.708 160.267C478.894 160.08 478.979 159.85 478.963 159.577C478.957 159.3 478.861 158.952 478.676 158.532C478.486 158.103 478.291 157.793 478.09 157.602C477.899 157.406 477.672 157.314 477.408 157.325C477.151 157.323 476.827 157.408 476.436 157.58C475.539 157.977 474.77 158.322 474.13 158.616C473.491 158.91 473.065 159.122 472.854 159.25L471.923 157.737C472.311 157.507 472.682 157.303 473.034 157.124C473.386 156.945 473.772 156.763 474.192 156.578C474.617 156.378 475.132 156.145 475.737 155.878ZM474.162 156.748L478.624 166.846L476.384 167.836L471.923 157.737L474.162 156.748ZM484.844 151.819C485.322 151.608 485.734 151.444 486.078 151.326C486.428 151.195 486.756 151.091 487.06 151.015C487.365 150.939 487.687 150.878 488.029 150.832L488.577 152.549C488.247 152.671 487.943 152.788 487.665 152.899C487.397 153.006 487.107 153.128 486.795 153.266C486.488 153.39 486.12 153.547 485.691 153.736C485.193 153.956 484.846 154.226 484.65 154.546C484.463 154.862 484.418 155.29 484.517 155.829C484.611 156.359 484.845 157.049 485.22 157.897C485.595 158.746 485.949 159.389 486.282 159.825C486.61 160.251 486.954 160.502 487.313 160.576C487.683 160.646 488.116 160.571 488.614 160.352C489.287 160.054 489.848 159.794 490.298 159.572C490.748 159.35 491.187 159.116 491.614 158.869L492.529 160.424C492.125 160.777 491.692 161.091 491.23 161.365C490.772 161.648 490.183 161.95 489.461 162.269C488.417 162.73 487.504 162.935 486.723 162.883C485.948 162.818 485.251 162.467 484.632 161.831C484.022 161.19 483.433 160.226 482.864 158.938C482.295 157.65 481.979 156.566 481.916 155.684C481.863 154.798 482.075 154.051 482.553 153.443C483.036 152.822 483.8 152.28 484.844 151.819Z" fill="#384553"/>
<path d="M542.41 101.743L551.663 95.2439L562.699 92.7801L573.838 94.7272L583.383 100.789L589.883 110.042L592.347 121.078L590.4 132.216L584.338 141.762L575.085 148.261L564.049 150.725L552.911 148.778L543.365 142.717L536.865 133.464L534.402 122.428L536.349 111.289L542.41 101.743Z" fill="url(#paint5_linear_50_224)" stroke="#FEFCAC" stroke-width="2"/>
<path d="M547.283 110.796L555.138 104.472L565.103 102.923L574.508 106.564L580.832 114.42L582.381 124.385L578.74 133.79L570.884 140.114L560.919 141.663L551.514 138.021L545.19 130.166L543.641 120.201L547.283 110.796Z" fill="#FEFCAC" stroke="#FEFCAC"/>
<path d="M558.061 119.508C559.007 119.09 559.792 118.86 560.415 118.818C561.038 118.776 561.567 118.945 562.003 119.324C562.448 119.698 562.86 120.315 563.24 121.174C563.619 122.032 563.802 122.75 563.789 123.327C563.785 123.9 563.578 124.394 563.166 124.809C562.751 125.214 562.118 125.604 561.27 125.979C560.821 126.178 560.373 126.352 559.927 126.503C559.48 126.653 559.058 126.781 558.662 126.887C558.265 126.992 557.922 127.073 557.633 127.131C557.339 127.179 557.131 127.196 557.007 127.18L556.56 126.049C557.136 125.794 557.731 125.531 558.345 125.26C558.97 124.984 559.585 124.712 560.189 124.445C560.575 124.263 560.856 124.081 561.032 123.898C561.218 123.711 561.303 123.481 561.287 123.208C561.281 122.931 561.186 122.582 561 122.163C560.811 121.734 560.615 121.423 560.414 121.232C560.223 121.037 559.996 120.945 559.733 120.956C559.475 120.953 559.151 121.038 558.761 121.211C557.863 121.607 557.094 121.953 556.455 122.247C555.815 122.541 555.389 122.752 555.178 122.881L554.247 121.368C554.635 121.138 555.006 120.934 555.358 120.755C555.711 120.576 556.096 120.394 556.516 120.208C556.941 120.009 557.456 119.775 558.061 119.508ZM556.486 120.379L560.948 130.477L558.709 131.466L554.247 121.368L556.486 120.379ZM567.168 115.45C567.646 115.239 568.058 115.074 568.402 114.957C568.753 114.826 569.08 114.722 569.384 114.646C569.689 114.569 570.012 114.508 570.353 114.463L570.901 116.179C570.571 116.302 570.267 116.419 569.989 116.53C569.722 116.637 569.432 116.759 569.119 116.897C568.813 117.021 568.445 117.177 568.015 117.367C567.518 117.587 567.17 117.857 566.974 118.177C566.787 118.493 566.742 118.921 566.841 119.46C566.935 119.99 567.17 120.679 567.545 121.528C567.92 122.377 568.273 123.019 568.606 123.456C568.934 123.882 569.278 124.132 569.638 124.207C570.007 124.277 570.44 124.202 570.938 123.982C571.611 123.685 572.173 123.425 572.623 123.203C573.072 122.981 573.511 122.746 573.938 122.499L574.853 124.054C574.449 124.408 574.016 124.721 573.554 124.995C573.097 125.279 572.507 125.581 571.785 125.899C570.741 126.361 569.828 126.566 569.048 126.514C568.272 126.448 567.575 126.098 566.956 125.461C566.346 124.821 565.757 123.857 565.188 122.569C564.619 121.281 564.303 120.196 564.24 119.315C564.187 118.429 564.399 117.682 564.877 117.074C565.361 116.452 566.124 115.911 567.168 115.45Z" fill="#384553"/>
<defs>
<linearGradient id="paint0_linear_50_224" x1="126.1" y1="292.302" x2="177.77" y2="315.72" gradientUnits="userSpaceOnUse">
<stop stop-color="#CE6B5E"/>
<stop offset="0.480471" stop-color="#89B2CC"/>
<stop offset="0.994792" stop-color="#97C6A6"/>
</linearGradient>
<linearGradient id="paint1_linear_50_224" x1="208.424" y1="255.933" x2="260.094" y2="279.35" gradientUnits="userSpaceOnUse">
<stop stop-color="#CE6B5E"/>
<stop offset="0.480471" stop-color="#89B2CC"/>
<stop offset="0.994792" stop-color="#97C6A6"/>
</linearGradient>
<linearGradient id="paint2_linear_50_224" x1="290.748" y1="219.564" x2="342.418" y2="242.981" gradientUnits="userSpaceOnUse">
<stop stop-color="#CE6B5E"/>
<stop offset="0.480471" stop-color="#89B2CC"/>
<stop offset="0.994792" stop-color="#97C6A6"/>
</linearGradient>
<linearGradient id="paint3_linear_50_224" x1="373.073" y1="183.194" x2="424.742" y2="206.612" gradientUnits="userSpaceOnUse">
<stop stop-color="#CE6B5E"/>
<stop offset="0.480471" stop-color="#89B2CC"/>
<stop offset="0.994792" stop-color="#97C6A6"/>
</linearGradient>
<linearGradient id="paint4_linear_50_224" x1="455.397" y1="146.825" x2="507.067" y2="170.242" gradientUnits="userSpaceOnUse">
<stop stop-color="#CE6B5E"/>
<stop offset="0.480471" stop-color="#89B2CC"/>
<stop offset="0.994792" stop-color="#97C6A6"/>
</linearGradient>
<linearGradient id="paint5_linear_50_224" x1="537.721" y1="110.456" x2="589.391" y2="133.873" gradientUnits="userSpaceOnUse">
<stop stop-color="#CE6B5E"/>
<stop offset="0.480471" stop-color="#89B2CC"/>
<stop offset="0.994792" stop-color="#97C6A6"/>
</linearGradient>
</defs>
</svg>
