<svg width="30" height="30" viewBox="0 0 30 30" fill="none" xmlns="http://www.w3.org/2000/svg">
<path d="M30 15C30 23.2843 23.2843 30 15 30C6.71572 30 0 23.2843 0 15C7.5 15 5.5 15 14 15C25 15 21.5 15 30 15Z" fill="#FEFCAC"/>
<path d="M1.52588e-05 15C1.52588e-05 6.71572 6.71574 -1.04904e-05 15 -1.04904e-05C23.2843 -1.04904e-05 30 6.71572 30 15C22.5 15 24.5 15 16 15C5.00001 15 8.50001 15 1.52588e-05 15Z" fill="white"/>
<line y1="14.6" x2="10.8" y2="14.6" stroke="#384553" stroke-width="2"/>
<line x1="19.2002" y1="14.6" x2="30.0002" y2="14.6" stroke="#384553" stroke-width="2"/>
<circle cx="14.9998" cy="14.9999" r="5.2" fill="#FEFCAC" stroke="#384553" stroke-width="2"/>
</svg>
